<svg width="71" height="72" viewBox="0 0 71 72" fill="none" xmlns="http://www.w3.org/2000/svg"><path fill-rule="evenodd" clip-rule="evenodd" d="M38.95 62.557h2.361c.652 0 1.18.529 1.18 1.18v2.361a5.902 5.902 0 01-5.9 5.902H5.9A5.902 5.902 0 010 66.098v-2.36c0-.652.528-1.18 1.18-1.18h2.361V37.77c0-.652.528-1.18 1.18-1.18h11.001a1.18 1.18 0 010 2.36h-9.82v23.607H36.59V50.99a1.18 1.18 0 112.36 0v11.567zm-2.36 7.082a3.541 3.541 0 003.541-3.54v-1.181H2.361v1.18A3.541 3.541 0 005.9 69.64h2.361v-1.18a1.18 1.18 0 012.361 0v1.18h21.246v-1.18a1.18 1.18 0 012.36 0v1.18h2.361z" fill="#000"/><path d="M61.377 8.262h2.36a1.18 1.18 0 100-2.36h-2.36a3.54 3.54 0 00-3.54 3.54v1.18h-1.181a1.18 1.18 0 000 2.362h1.18v3.54a1.18 1.18 0 002.36 0v-3.54h1.181a1.18 1.18 0 000-2.361h-1.18v-1.18c0-.652.528-1.18 1.18-1.18z" fill="#000"/><path d="M67.279 1.18H53.115a3.541 3.541 0 00-3.541 3.541v2.361a1.18 1.18 0 102.36 0v-2.36c0-.652.529-1.18 1.18-1.18H67.28c.652 0 1.18.528 1.18 1.18v14.163a1.18 1.18 0 01-1.18 1.18H53.115a1.18 1.18 0 01-1.18-1.18v-7.082a1.18 1.18 0 10-2.361 0v7.082a3.54 3.54 0 003.54 3.541H67.28a3.541 3.541 0 003.54-3.54V4.72a3.541 3.541 0 00-3.54-3.54z" fill="#000"/><path fill-rule="evenodd" clip-rule="evenodd" d="M60.197 53.115a4.721 4.721 0 110-9.443 4.721 4.721 0 010 9.443zm0-2.36a2.36 2.36 0 100-4.722 2.36 2.36 0 000 4.721z" fill="#000"/><path d="M67.279 37.77H53.115a3.541 3.541 0 00-3.541 3.541v14.164a3.54 3.54 0 003.54 3.541H67.28a3.541 3.541 0 003.54-3.54v-2.361a1.18 1.18 0 00-2.36 0v2.36a1.18 1.18 0 01-1.18 1.18H53.115a1.18 1.18 0 01-1.18-1.18V41.312c0-.652.528-1.18 1.18-1.18h14.164c.652 0 1.18.528 1.18 1.18v7.082a1.18 1.18 0 002.36 0v-7.082a3.541 3.541 0 00-3.54-3.541z" fill="#000"/><path fill-rule="evenodd" clip-rule="evenodd" d="M27.148 15.344a1.18 1.18 0 01-1.18-1.18V7.082a1.18 1.18 0 011.71-1.05l7.083 3.54a1.18 1.18 0 010 2.102l-7.082 3.54a1.181 1.181 0 01-.531.13zm4.438-4.721l-3.258-1.629v3.258l3.258-1.629z" fill="#000"/><path fill-rule="evenodd" clip-rule="evenodd" d="M40.131 10.623c0 5.867-4.756 10.623-10.623 10.623-5.867 0-10.623-4.756-10.623-10.623C18.885 4.756 23.641 0 29.508 0c5.867 0 10.623 4.756 10.623 10.623zm-2.36 0a8.262 8.262 0 10-16.525 0 8.262 8.262 0 0016.524 0z" fill="#000"/><path d="M41.312 25.967c.371 0 .72-.175.944-.472l3.54-4.721a1.18 1.18 0 10-1.888-1.416l-3.54 4.72a1.18 1.18 0 00.944 1.89zm2.596 4.249a1.18 1.18 0 001.653.236l4.721-3.54a1.18 1.18 0 10-1.416-1.889l-4.722 3.541a1.18 1.18 0 00-.236 1.652zm11.567 2.597a1.18 1.18 0 00-1.416-.944l-5.902 1.18a1.186 1.186 0 00.236 2.36h.236l5.902-1.18a1.18 1.18 0 00.944-1.416z" fill="#000"/><path fill-rule="evenodd" clip-rule="evenodd" d="M15.344 33.05H1.18A1.18 1.18 0 010 31.868V12.984c0-.652.528-1.18 1.18-1.18h14.164c.652 0 1.18.528 1.18 1.18v18.885a1.18 1.18 0 01-1.18 1.18zm-1.18-18.886H2.36v16.525h11.803V14.164z" fill="#000"/><path d="M10.623 16.525h-2.36a1.18 1.18 0 100 2.36h2.36a1.18 1.18 0 000-2.36zm0 4.721H5.902a1.18 1.18 0 000 2.36h4.721a1.18 1.18 0 000-2.36zm0 4.721H5.902a1.18 1.18 0 100 2.36h4.721a1.18 1.18 0 000-2.36z" fill="#000"/><path fill-rule="evenodd" clip-rule="evenodd" d="M40.273 32.695a1.185 1.185 0 00-2.054 1.18l5.205 9.006-18.885 7.082h-.177l-3.069 1.77-2.042 1.181a2.36 2.36 0 01-3.222-.861l-2.36-4.084a2.36 2.36 0 01.884-3.117l4.084-2.36 2.951 5.11a1.18 1.18 0 001.027.59 1.18 1.18 0 001.027-1.77l-3.045-5.264L35.41 28.942l.484.838a1.184 1.184 0 102.053-1.18l-1.18-2.043a1.18 1.18 0 00-.814-.566 1.18 1.18 0 00-.968.248L18.46 39.859l-5.028 2.904a4.721 4.721 0 00-2.172 5.347l-1.18.673a3.541 3.541 0 001.77 6.61 3.612 3.612 0 001.771-.472l1.18-.673a4.58 4.58 0 003.305 1.393 4.651 4.651 0 002.36-.638l1.028-.59 2.36 4.096a3.541 3.541 0 004.828 1.298 3.541 3.541 0 001.298-4.84l-2.148-3.74 17.705-6.646a1.18 1.18 0 00.696-.708 1.18 1.18 0 00-.082-.98l-5.878-10.198zm-27.88 20.172a1.18 1.18 0 01-.897.118 1.18 1.18 0 01-.72-.543 1.18 1.18 0 01.437-1.617l1.027-.59 1.18 2.042-1.027.59zm15.652 4.202a1.18 1.18 0 00-.118-.897l-2.35-4.037h-.094l-1.96 1.122 2.362 4.095a1.18 1.18 0 001.605.425 1.18 1.18 0 00.555-.708z" fill="#000"/></svg>