<svg width="72" height="72" viewBox="0 0 72 72" fill="none" xmlns="http://www.w3.org/2000/svg"><g fill="#000"><path d="M64.5 27h-15a1.5 1.5 0 000 3h15c2.481 0 4.5 2.019 4.5 4.5v30c0 2.481-2.019 4.5-4.5 4.5h-30a4.505 4.505 0 01-4.5-4.5v-12a1.5 1.5 0 00-3 0v12c0 4.134 3.366 7.5 7.5 7.5h30c4.134 0 7.5-3.366 7.5-7.5v-30c0-4.134-3.366-7.5-7.5-7.5zm-42 15H21a1.5 1.5 0 000 3h1.5a1.5 1.5 0 000-3zM8.823 0H7.5a7.54 7.54 0 00-2.106.3 1.505 1.505 0 00-1.02 1.863A1.502 1.502 0 006.237 3.18C6.645 3.06 7.068 3 7.5 3h1.323a1.499 1.499 0 100-3zM3 36.171v-3.033a1.5 1.5 0 00-3 0v3.033a1.5 1.5 0 003 0zm-1.5-7.599a1.5 1.5 0 001.5-1.5v-3.033a1.5 1.5 0 00-3 0v3.033a1.5 1.5 0 001.5 1.5zm0-18.195a1.5 1.5 0 001.5-1.5V7.5c0-.417.057-.828.168-1.224a1.498 1.498 0 00-1.035-1.851A1.49 1.49 0 00.283 5.46 7.557 7.557 0 000 7.5v1.377a1.5 1.5 0 001.5 1.5zm0 9.099a1.5 1.5 0 001.5-1.5v-3.033a1.5 1.5 0 00-3 0v3.033a1.5 1.5 0 001.5 1.5zm4.77 22.353a4.515 4.515 0 01-1.938-1.137 1.501 1.501 0 00-2.121.006 1.498 1.498 0 00.006 2.121 7.49 7.49 0 003.234 1.896 1.498 1.498 0 001.851-1.032A1.498 1.498 0 006.27 41.83zM43.257 7.308c.138 0 .28-.018.42-.063a1.5 1.5 0 001.02-1.86 7.505 7.505 0 00-1.923-3.22 1.499 1.499 0 00-2.121.013 1.501 1.501 0 00.012 2.12c.54.54.942 1.207 1.152 1.93.192.654.79 1.08 1.44 1.08zM36.117 0h-3.033a1.5 1.5 0 000 3h3.033a1.5 1.5 0 000-3zm-21.18 42h-3.033a1.5 1.5 0 000 3h3.033a1.5 1.5 0 000-3zM43.5 10.35a1.5 1.5 0 00-1.5 1.5v3.033a1.5 1.5 0 003 0V11.85c0-.831-.672-1.5-1.5-1.5zM27.02 0h-3.032a1.5 1.5 0 000 3h3.03a1.501 1.501 0 10.003-3zm-9.098 0h-3.033a1.5 1.5 0 000 3h3.033a1.5 1.5 0 000-3zM43.5 19.5A1.5 1.5 0 0042 21v1.5a1.5 1.5 0 003 0V21a1.5 1.5 0 00-1.5-1.5z"/><path fill-rule="evenodd" clip-rule="evenodd" d="M44.562 21.438l4.65 4.65A16.256 16.256 0 0154 37.65C54 46.665 46.665 54 37.65 54H31.5c-4.134 0-7.5-3.366-7.5-7.5v-5.379l-1.344-1.344a4.647 4.647 0 01-1.371-3.312c0-1.251.486-2.427 1.37-3.312a4.657 4.657 0 012.677-1.329 4.672 4.672 0 011.359-3.636 4.723 4.723 0 013.966-1.326 4.661 4.661 0 011.284-2.424c1.26-1.26 3.216-1.683 4.85-1.113a4.66 4.66 0 011.15-1.887 4.69 4.69 0 016.62 0zM31.5 51h6.15C45.012 51 51 45.012 51 37.65c0-3.564-1.39-6.918-3.91-9.438l-4.65-4.65a1.682 1.682 0 00-2.378 0 1.663 1.663 0 00-.495 1.188c0 .45.174.873.492 1.188a1.507 1.507 0 01.003 2.124 1.501 1.501 0 01-2.121 0l-1.5-1.5c-.636-.636-1.743-.636-2.38 0a1.682 1.682 0 000 2.379l1.5 1.5c.292.291.439.675.439 1.059 0 .384-.147.768-.438 1.062a1.501 1.501 0 01-2.121 0l-2.25-2.25c-.636-.636-1.743-.636-2.38 0a1.682 1.682 0 000 2.379l3.75 3.75c.292.291.439.675.439 1.059 0 .384-.147.768-.438 1.062a1.501 1.501 0 01-2.121 0l-3.285-3.285c-.636-.636-1.743-.636-2.38 0a1.67 1.67 0 00-.491 1.188c0 .447.174.873.492 1.188l7.785 7.785a1.506 1.506 0 010 2.124 1.501 1.501 0 01-2.121 0L27 44.122V46.5c0 2.481 2.019 4.5 4.5 4.5z"/></g></svg>