<svg width="81" height="72" viewBox="0 0 81 72" fill="none" xmlns="http://www.w3.org/2000/svg"><g fill="#000"><path fill-rule="evenodd" clip-rule="evenodd" d="M34.824 40.235c0-7.611 6.193-13.804 13.804-13.804 7.612 0 13.804 6.193 13.804 13.804 0 7.612-6.192 13.804-13.804 13.804-7.611 0-13.804-6.192-13.804-13.804zm3.138 0c0 5.882 4.784 10.667 10.666 10.667 5.882 0 10.667-4.785 10.667-10.667 0-5.881-4.785-10.666-10.667-10.666s-10.666 4.785-10.666 10.666z"/><path d="M48.628 33.177a1.568 1.568 0 100 3.137 3.926 3.926 0 013.921 3.921 1.568 1.568 0 103.137 0 7.066 7.066 0 00-7.058-7.058zM9.67 11.906a1.57 1.57 0 00-2.787 1.443l4.223 8.157c.273.528.826.85 1.417.847a1.569 1.569 0 001.39-.89l2.556-5.322 2.777 5.365c.27.52.807.847 1.393.847h.023a1.57 1.57 0 001.391-.89l3.917-8.157a1.569 1.569 0 00-2.827-1.357l-2.557 5.322-2.777-5.365a1.57 1.57 0 00-2.807.042l-2.556 5.323-2.776-5.365zm10.093-8.69a1.58 1.58 0 001.109-.46c.292-.292.46-.697.46-1.109 0-.412-.168-.817-.46-1.109a1.58 1.58 0 00-1.109-.46 1.58 1.58 0 00-1.109.46c-.292.292-.46.697-.46 1.11 0 .411.168.816.46 1.108.292.292.697.46 1.109.46z"/><path fill-rule="evenodd" clip-rule="evenodd" d="M80.314 6.353v20.706a6.281 6.281 0 01-6.275 6.274h-6.222a20.296 20.296 0 011.203 6.902c0 6.407-2.97 12.132-7.605 15.873l12.037 12.038c.85.85 2.235.85 3.085 0 .85-.851.85-2.236 0-3.086l-4.891-4.892a1.568 1.568 0 112.218-2.218l4.891 4.891a5.325 5.325 0 010 7.523 5.302 5.302 0 01-3.76 1.555 5.302 5.302 0 01-3.761-1.555l-12.45-12.45a20.268 20.268 0 01-10.156 2.713c-11.244 0-20.392-9.147-20.392-20.392 0-2.421.425-4.745 1.203-6.902H6.275A6.281 6.281 0 010 27.06V6.353A6.282 6.282 0 016.275.078h6.43a1.568 1.568 0 110 3.138h-6.43a3.14 3.14 0 00-3.138 3.137v20.706a3.141 3.141 0 003.138 3.137h24.61a20.528 20.528 0 019.13-8.441 1.524 1.524 0 01-.166-.25l-2.776-5.363-2.556 5.321a1.569 1.569 0 01-2.807.043l-4.223-8.157a1.568 1.568 0 112.786-1.443l2.777 5.365 2.556-5.323a1.568 1.568 0 012.807-.042l2.777 5.365 2.556-5.323a1.568 1.568 0 112.828 1.358l-3.51 7.31a20.347 20.347 0 018.497-.56l-3.471-6.707a1.569 1.569 0 012.786-1.443l2.777 5.365 2.556-5.323a1.567 1.567 0 012.807-.042l2.777 5.365 2.556-5.323a1.568 1.568 0 112.828 1.358l-3.918 8.157a1.57 1.57 0 01-1.39.89h-.024a1.567 1.567 0 01-1.393-.848l-2.777-5.363-2.325 4.84a20.501 20.501 0 0111.026 9.22c.044-.003.088-.006.134-.006h7.53a3.141 3.141 0 003.136-3.137V6.353a3.141 3.141 0 00-3.137-3.137H26.351a1.569 1.569 0 010-3.138H74.04a6.282 6.282 0 016.275 6.275zm-48.94 33.882c0 9.514 7.74 17.255 17.254 17.255 9.515 0 17.255-7.74 17.255-17.255 0-9.514-7.74-17.255-17.255-17.255-9.514 0-17.255 7.741-17.255 17.255z"/><path d="M67.924 54.23a1.58 1.58 0 00-.46 1.108c0 .413.169.817.46 1.11.294.291.697.459 1.11.459a1.58 1.58 0 001.108-.46c.294-.292.46-.696.46-1.109a1.572 1.572 0 00-1.569-1.568c-.412 0-.817.167-1.109.46z"/></g></svg>