<svg width="91" height="72" viewBox="0 0 91 72" fill="none" xmlns="http://www.w3.org/2000/svg"><path fill-rule="evenodd" clip-rule="evenodd" d="M76.124 5.272h8.893a5.336 5.336 0 015.336 5.336v8.132c0 .946-.712 1.774-1.655 1.838a1.781 1.781 0 01-1.902-1.774v-8.196a1.786 1.786 0 00-1.779-1.779h-8.893v36.64h8.893a1.786 1.786 0 001.779-1.78v-8.88c0-1.02.866-1.844 1.902-1.774.944.064 1.655.892 1.655 1.838v8.817a5.336 5.336 0 01-5.336 5.336h-8.893v3.62c0 .983-.796 1.78-1.778 1.78H16.007a1.779 1.779 0 01-1.778-1.78V49.09H5.336A5.336 5.336 0 010 43.754v-8.817c0-.946.711-1.774 1.655-1.838a1.781 1.781 0 011.902 1.774v8.88c.002.979.8 1.777 1.779 1.78h8.893V8.892H5.336c-.978.002-1.777.8-1.779 1.779v8.196a1.78 1.78 0 01-1.902 1.774C.711 20.578 0 19.75 0 18.804v-8.132a5.336 5.336 0 015.336-5.336h8.893V1.779c0-.983.796-1.779 1.778-1.779h58.338c.983 0 1.78.796 1.78 1.779v3.493zM69.01 16.72c0 5.296-4.309 9.604-9.605 9.604s-9.604-4.308-9.604-9.604c0-5.296 4.308-9.605 9.604-9.605 5.296 0 9.605 4.309 9.605 9.605zM45.176 57.627a7.122 7.122 0 00-7.114 7.114 7.122 7.122 0 007.114 7.115 7.122 7.122 0 007.115-7.115 7.122 7.122 0 00-7.114-7.114zm0 10.671a3.561 3.561 0 01-3.557-3.557 3.561 3.561 0 013.557-3.557 3.561 3.561 0 013.558 3.557 3.561 3.561 0 01-3.558 3.557zM14.23 64.741a6.054 6.054 0 016.047-6.047 6.054 6.054 0 016.047 6.047 6.054 6.054 0 01-6.047 6.047 6.054 6.054 0 01-6.047-6.047zm6.047 2.49a2.493 2.493 0 01-2.49-2.49 2.493 2.493 0 012.49-2.49 2.493 2.493 0 012.49 2.49 2.493 2.493 0 01-2.49 2.49zm43.754-2.49a6.054 6.054 0 016.047-6.047 6.054 6.054 0 016.047 6.047 6.054 6.054 0 01-6.047 6.047 6.054 6.054 0 01-6.047-6.047zm6.047 2.49a2.493 2.493 0 01-2.49-2.49 2.493 2.493 0 012.49-2.49 2.493 2.493 0 012.49 2.49 2.493 2.493 0 01-2.49 2.49zm-10.672-56.56a6.054 6.054 0 016.047 6.048 6.054 6.054 0 01-6.047 6.047 6.054 6.054 0 01-6.047-6.047 6.054 6.054 0 016.047-6.047zM90.353 26.87c0-.98-.799-1.778-1.779-1.778-.98 0-1.778.798-1.778 1.778s.798 1.779 1.778 1.779 1.779-.799 1.779-1.779zM1.779 28.648A1.78 1.78 0 010 26.869c0-.98.799-1.778 1.779-1.778.98 0 1.778.798 1.778 1.778a1.78 1.78 0 01-1.778 1.779zm70.788-25.09v46.63L48.87 28.036c-3.02-2.823-7.75-2.823-10.769 0l-5.318 4.971L19.78 16.754a4.816 4.816 0 00-1.994-1.476V3.558h54.78zM35.5 42.097L17.786 19.956v30.913h50.3L46.442 30.635a4.34 4.34 0 00-5.91 0l-5.52 5.159 3.267 4.082c1.48 1.85-1.298 4.073-2.778 2.223z" fill="#000"/></svg>